<?xml version="1.0" encoding="utf-8"?>
<!-- Generator: Adobe Illustrator 23.0.1, SVG Export Plug-In . SVG Version: 6.00 Build 0)  -->
<svg version="1.1" id="Layer_1" xmlns="http://www.w3.org/2000/svg" xmlns:xlink="http://www.w3.org/1999/xlink" x="0px" y="0px"
	 viewBox="0 0 320.7 210.1" style="enable-background:new 0 0 320.7 210.1;" xml:space="preserve">
<style type="text/css">
	.st0{fill-rule:evenodd;clip-rule:evenodd;fill:#FFCB05;}
	.st1{fill-rule:evenodd;clip-rule:evenodd;fill:#FDB813;}
	.st2{fill:#FDB813;}
	.st3{fill:#939598;}
</style>
<g>
	<path class="st0" d="M0.2,45.1c86.7,4.4,102.1,66.2,75.3,157.3c14.1-77.1-13.7-137-67.8-148.1c-0.7,36.5,16.6,61,55.8,71.2
		C17.4,122.3-1.9,93.8,0.2,45.1"/>
	<path class="st0" d="M20.9,69.7c-3,18,3.7,31.3,19.1,40.5c-9.7-11.5-15.1-22.9-11.9-34.4c6.5-0.1,13.2,2,20.1,5.8
		C42.4,74.5,33.5,70.3,20.9,69.7"/>
	<path class="st0" d="M38.5,87.6c-0.1,9.6,4.6,16,13.9,19.1c-6.9-4.3-9.9-9.8-9.7-16.3c4-0.8,7.7-0.2,11.4,1.2
		C50.6,88.3,45.3,87,38.5,87.6"/>
	<path class="st0" d="M121.9,53.8c4.7,27.9-5.8,48.5-29.6,62.9c15.1-17.8,23.4-35.6,18.5-53.3c-10.1-0.1-20.5,3.1-31.2,9
		C88.6,61.2,102.4,54.8,121.9,53.8"/>
	<path class="st0" d="M104.8,71.3c2.7,13.9-2.1,24.4-14.1,31.5c8.3-8.1,11.1-16.9,9-26.3c-5.7-0.1-10.8,1.9-15.5,5
		C88.3,75.7,95.2,72.4,104.8,71.3"/>
	<path class="st1" d="M73.2,19.6c6.2,0,11.2,5,11.2,11.2S79.4,42,73.2,42S62,37,62,30.8C62,24.7,67,19.6,73.2,19.6 M73.1,0L73.1,0
		c0.9,0,1.6,0.7,1.6,1.6v17.1L79,2.1c0.2-0.8,1.1-1.3,1.9-1.1l0,0c0.8,0.2,1.3,1.1,1.1,1.9l-4.3,16.6L86,4.6c0.4-0.8,1.4-1,2.1-0.6
		c0.8,0.4,1,1.4,0.6,2.1L80.4,21L92.2,8.6C92.8,8,93.8,8,94.4,8.5c0.6,0.6,0.6,1.6,0.1,2.2L82.7,23.1l14.5-9
		c0.7-0.5,1.7-0.2,2.2,0.5s0.2,1.7-0.5,2.2l-14.5,9l16.3-5.1c0.8-0.3,1.7,0.2,2,1l0,0c0.3,0.8-0.2,1.7-1,2l-16.3,5.1l16.9-0.8
		c0.9,0,1.6,0.6,1.6,1.5s-0.6,1.6-1.5,1.6l-17.1,0.8l16.7,3.5c0.8,0.2,1.4,1,1.2,1.9c-0.2,0.8-1,1.4-1.8,1.2L84.7,35l15.3,7.6
		c0.8,0.4,1.1,1.3,0.7,2.1c-0.4,0.8-1.3,1.1-2.1,0.7l-15.3-7.7l13,11.3c0.6,0.6,0.7,1.6,0.2,2.2c-0.6,0.6-1.6,0.7-2.2,0.2l-13-11.3
		L91,54.2c0.5,0.7,0.3,1.7-0.4,2.2s-1.7,0.3-2.2-0.4l-9.7-14.1L84.5,58c0.3,0.8-0.1,1.7-0.9,2c-0.8,0.3-1.7-0.1-2-0.9L75.8,43
		l1.6,17c0.1,0.9-0.6,1.6-1.4,1.7c-0.9,0.1-1.6-0.6-1.7-1.4l-1.6-17L70,60.2c-0.1,0.8-0.9,1.4-1.8,1.3c-0.8-0.1-1.4-0.9-1.3-1.8
		l2.7-16.9l-6.9,15.7c-0.3,0.8-1.3,1.1-2.1,0.8l0,0c-0.8-0.3-1.1-1.3-0.8-2.1l6.9-15.7L56.1,54.9c-0.5,0.7-1.5,0.8-2.2,0.3
		s-0.8-1.5-0.3-2.2l10.7-13.5L50.7,49.8c-0.7,0.5-1.7,0.4-2.2-0.3l0,0c-0.5-0.7-0.4-1.7,0.3-2.2L62.4,37l-15.8,6.6
		c-0.8,0.3-1.7,0-2-0.8s0-1.7,0.8-2l15.8-6.6l-16.9,2.4c-0.9,0.1-1.6-0.5-1.8-1.3c-0.1-0.9,0.5-1.6,1.3-1.8l16.9-2.4l-17-1.9
		c-0.9-0.1-1.5-0.9-1.4-1.7c0.1-0.9,0.9-1.5,1.7-1.4L61,28l-16-6.1c-0.8-0.3-1.2-1.2-0.9-2s1.2-1.2,2-0.9l16,6.1l-13.9-10
		c-0.7-0.5-0.9-1.5-0.4-2.2s1.5-0.9,2.2-0.4l13.9,10l-11-13.1c-0.6-0.7-0.5-1.6,0.2-2.2l0,0c0.7-0.6,1.7-0.5,2.2,0.2l11,13.1L59.1,5
		c-0.4-0.8,0-1.7,0.7-2.1c0.8-0.4,1.7,0,2.1,0.7l6.4,13.5L65,2.5c-0.2-0.8,0.3-1.7,1.2-1.9c0.8-0.2,1.7,0.3,1.9,1.2l3.5,15.1V1.6
		C71.5,0.7,72.2,0,73.1,0z"/>
	<path class="st1" d="M73.2,21.5c5.1,0,9.3,4.2,9.3,9.3s-4.2,9.3-9.3,9.3s-9.3-4.2-9.3-9.3S68,21.5,73.2,21.5"/>
	<polygon class="st2" points="120.7,126.9 120.7,180.1 111.7,180.1 111.7,126.9 97.5,126.9 97.5,118.3 135.2,118.3 135.2,126.9 	"/>
	<polygon class="st2" points="177.6,126.9 152.5,126.9 152.5,141.9 176.9,141.9 176.9,150.5 152.5,150.5 152.5,171.4 177.6,171.4 
		177.6,180.1 143.6,180.1 143.6,118.3 177.6,118.3 	"/>
	<path class="st2" d="M208.7,118.3v39.9c0,3.4-0.1,6-0.4,7.8c-0.6,4-1.9,7.2-3.9,9.6c-3,3.7-7,5.6-12.1,5.6c-2.2,0-4.1-0.2-5.8-0.7
		c-1.7-0.5-3.4-1.3-5.3-2.4l4.6-7.9c1.2,0.9,2.3,1.5,3.3,1.9s2,0.5,3.1,0.5c1.4,0,2.7-0.4,3.8-1.1c1.1-0.7,1.9-1.7,2.5-3
		c0.8-1.8,1.2-5.3,1.2-10.3v-39.9L208.7,118.3L208.7,118.3z"/>
	<path class="st2" d="M256.1,156.4l-9.2-21.1l-9.6,21.1H256.1z M259.8,165h-26.5l-6.9,15h-10l30.6-65.6l29.4,65.6h-10.1L259.8,165z"
		/>
	<path class="st2" d="M319.1,127.5l-7.6,4.4c-1.2-2.1-2.3-3.5-3.3-4.3c-1.5-1.3-3.5-1.9-5.9-1.9c-2.6,0-4.8,0.7-6.5,2.2
		s-2.6,3.3-2.6,5.5c0,3,2.3,5.4,6.8,7.3l6.2,2.5c5.2,2.1,8.9,4.6,11.1,7.5c2.3,3,3.4,6.5,3.4,10.4c0,2.9-0.5,5.7-1.6,8.3
		s-2.6,4.8-4.7,6.7c-3.6,3.4-8,5-13.2,5c-6.4,0-11.4-2.2-15.2-6.7c-1.4-1.6-2.4-3.3-3.1-5s-1.3-3.9-1.7-6.6l9.4-2
		c0.3,2.1,0.6,3.7,0.9,4.8c0.3,1,0.8,2,1.4,2.9c0.9,1.2,2.1,2.2,3.6,2.9s3.1,1.1,4.8,1.1c2.9,0,5.4-1,7.3-2.9c1.9-2,2.9-4.4,2.9-7.4
		c0-2.4-0.7-4.5-2.1-6.1s-3.6-3.1-6.8-4.4l-6-2.5c-4.5-1.9-7.7-4.1-9.7-6.7c-2-2.6-3-5.6-3-8.8c0-4.9,1.8-8.9,5.4-11.9
		c1.7-1.5,3.8-2.6,6.1-3.4c2.3-0.8,4.6-1.2,7.1-1.2c4.3,0,8,1.2,11.2,3.6c1.1,0.9,2.1,1.8,2.9,2.8
		C317.2,124.5,318.1,125.8,319.1,127.5"/>
	<path class="st3" d="M122.3,194.1l-2.3,1.3c-0.4-0.6-0.7-1-1-1.3c-0.5-0.4-1-0.6-1.8-0.6s-1.4,0.2-1.9,0.6c-0.5,0.4-0.8,1-0.8,1.6
		c0,0.9,0.7,1.6,2,2.2l1.8,0.7c1.5,0.6,2.6,1.4,3.3,2.2c0.7,0.9,1,1.9,1,3.1c0,0.9-0.2,1.7-0.5,2.4c-0.3,0.8-0.8,1.4-1.4,2
		c-1.1,1-2.4,1.5-3.9,1.5c-1.9,0-3.4-0.7-4.5-2c-0.4-0.5-0.7-1-0.9-1.5s-0.4-1.2-0.5-2l2.8-0.6c0.1,0.6,0.2,1.1,0.3,1.4
		c0.1,0.3,0.2,0.6,0.4,0.9c0.3,0.4,0.6,0.7,1.1,0.9s0.9,0.3,1.4,0.3c0.9,0,1.6-0.3,2.2-0.9c0.6-0.6,0.9-1.3,0.9-2.2
		c0-0.7-0.2-1.3-0.6-1.8c-0.4-0.5-1.1-0.9-2-1.3l-1.8-0.8c-1.3-0.6-2.3-1.2-2.9-2c-0.6-0.8-0.9-1.7-0.9-2.6c0-1.5,0.5-2.6,1.6-3.5
		c0.5-0.4,1.1-0.8,1.8-1s1.4-0.4,2.1-0.4c1.3,0,2.4,0.4,3.3,1.1c0.3,0.3,0.6,0.5,0.9,0.8C121.8,193.2,122,193.6,122.3,194.1"/>
	<path class="st3" d="M140.4,193.6c-1.1,0-2.1,0.2-3,0.7c-1,0.5-1.7,1.1-2.3,1.9c-0.4,0.6-0.8,1.3-1.1,2.1c-0.3,0.8-0.4,1.5-0.4,2.3
		c0,0.7,0.1,1.5,0.4,2.3s0.6,1.5,1.1,2.1c0.6,0.8,1.4,1.4,2.3,1.9c1,0.5,2,0.7,3,0.7c1.1,0,2.1-0.2,3-0.7c1-0.5,1.7-1.1,2.3-1.9
		c0.4-0.6,0.8-1.3,1.1-2.1c0.3-0.8,0.4-1.5,0.4-2.3c0-0.7-0.1-1.5-0.4-2.3s-0.6-1.5-1.1-2.1c-0.6-0.8-1.4-1.4-2.3-1.9
		S141.5,193.6,140.4,193.6 M140.4,191c1.4,0,2.8,0.3,4.2,1c1.4,0.7,2.5,1.6,3.4,2.7c0.6,0.8,1.1,1.7,1.5,2.7s0.5,2,0.5,3
		s-0.2,2-0.5,3.1c-0.4,1-0.8,1.9-1.5,2.8c-0.8,1.1-2,2-3.4,2.7s-2.8,1-4.2,1c-1.4,0-2.9-0.3-4.2-1c-1.4-0.7-2.5-1.6-3.4-2.7
		c-0.6-0.8-1.1-1.7-1.5-2.7s-0.5-2-0.5-3.1c0-1,0.2-2,0.5-3.1c0.4-1,0.8-2,1.4-2.7c0.9-1.1,2-2,3.4-2.7
		C137.6,191.4,139,191,140.4,191z"/>
	<polygon class="st3" points="161.8,191.4 161.8,207.1 167.3,207.1 167.3,209.7 159.1,209.7 159.1,191.4 	"/>
	<path class="st3" d="M185.2,202.7l-2.7-6.2l-2.9,6.2H185.2z M186.3,205.2h-7.9l-2,4.4h-3l9.1-19.4l8.7,19.4h-3L186.3,205.2z"/>
	<path class="st3" d="M201.8,199.7h0.9c1.3,0,2.3-0.3,2.9-0.8c0.3-0.3,0.5-0.6,0.7-1s0.2-0.8,0.2-1.2c0-0.8-0.3-1.5-0.9-2
		c-0.3-0.3-0.7-0.5-1.1-0.6c-0.5-0.1-1-0.2-1.7-0.2h-1V199.7z M205.2,201.9l5.7,7.8h-3.4l-5.2-7.5h-0.5v7.5h-2.7v-18.3h3.1
		c1.3,0,2.3,0.1,3.2,0.3c0.8,0.2,1.5,0.5,2.1,1s1,1,1.3,1.8c0.3,0.7,0.5,1.4,0.5,2.2c0,0.7-0.1,1.4-0.4,2.1
		c-0.3,0.7-0.6,1.2-1.1,1.7C207.1,201.2,206.3,201.6,205.2,201.9z"/>
	<polygon class="st3" points="231.2,193.9 231.2,209.7 228.5,209.7 228.5,193.9 224.3,193.9 224.3,191.4 235.5,191.4 235.5,193.9 	
		"/>
	<polygon class="st3" points="253.7,193.9 246.3,193.9 246.3,198.4 253.5,198.4 253.5,200.9 246.3,200.9 246.3,207.1 253.7,207.1 
		253.7,209.7 243.6,209.7 243.6,191.4 253.7,191.4 	"/>
	<path class="st3" d="M276.5,195.6c-0.5-0.4-0.9-0.7-1.2-0.9c-0.3-0.2-0.6-0.4-1-0.5c-0.9-0.4-1.8-0.6-2.8-0.6
		c-0.9,0-1.7,0.2-2.5,0.5s-1.5,0.8-2.1,1.4c-0.7,0.6-1.2,1.4-1.6,2.3c-0.4,0.9-0.6,1.8-0.6,2.8s0.2,1.9,0.6,2.8
		c0.4,0.9,0.9,1.7,1.6,2.3c0.6,0.6,1.3,1,2.1,1.4c0.8,0.3,1.6,0.5,2.4,0.5c0.9,0,1.9-0.2,2.8-0.6c0.4-0.2,0.7-0.4,1-0.6
		c0.3-0.2,0.7-0.5,1.2-0.9v3.3c-0.9,0.5-1.6,0.9-2.4,1c-0.7,0.2-1.6,0.3-2.5,0.3c-1.4,0-2.7-0.3-4-0.9c-1.3-0.6-2.4-1.4-3.3-2.5
		c-0.7-0.9-1.3-1.8-1.7-2.9c-0.4-1.1-0.6-2.1-0.6-3.2c0-1.1,0.2-2.1,0.6-3.2c0.4-1.1,1-2,1.7-2.9c0.9-1.1,2-1.9,3.3-2.5
		s2.6-0.9,4-0.9c1,0,1.8,0.1,2.5,0.3s1.5,0.5,2.4,1v3.2H276.5z"/>
	<polygon class="st3" points="288.3,198.5 296.4,198.5 296.4,191.4 299.1,191.4 299.1,209.7 296.4,209.7 296.4,201.1 288.3,201.1 
		288.3,209.7 285.7,209.7 285.7,191.4 288.3,191.4 	"/>
	<path class="st3" d="M319.5,194.1l-2.3,1.3c-0.4-0.6-0.7-1-1-1.3c-0.5-0.4-1-0.6-1.8-0.6s-1.4,0.2-1.9,0.6c-0.5,0.4-0.8,1-0.8,1.6
		c0,0.9,0.7,1.6,2,2.2l1.8,0.7c1.5,0.6,2.6,1.4,3.3,2.2c0.7,0.9,1,1.9,1,3.1c0,0.9-0.2,1.7-0.5,2.4c-0.3,0.8-0.8,1.4-1.4,2
		c-1.1,1-2.4,1.5-3.9,1.5c-1.9,0-3.4-0.7-4.5-2c-0.4-0.5-0.7-1-0.9-1.5c-0.2-0.5-0.4-1.2-0.5-2l2.8-0.6c0.1,0.6,0.2,1.1,0.3,1.4
		c0.1,0.3,0.2,0.6,0.4,0.9c0.3,0.4,0.6,0.7,1.1,0.9s0.9,0.3,1.4,0.3c0.9,0,1.6-0.3,2.2-0.9c0.6-0.6,0.9-1.3,0.9-2.2
		c0-0.7-0.2-1.3-0.6-1.8s-1.1-0.9-2-1.3l-1.8-0.8c-1.3-0.6-2.3-1.2-2.9-2s-0.9-1.7-0.9-2.6c0-1.5,0.5-2.6,1.6-3.5
		c0.5-0.4,1.1-0.8,1.8-1c0.7-0.2,1.4-0.4,2.1-0.4c1.3,0,2.4,0.4,3.3,1.1c0.3,0.3,0.6,0.5,0.9,0.8
		C318.9,193.2,319.2,193.6,319.5,194.1"/>
</g>
</svg>
